<svg width="241" height="247" viewBox="0 0 241 247" fill="none" xmlns="http://www.w3.org/2000/svg">
<path fill-rule="evenodd" clip-rule="evenodd" d="M116.905 2.01848C40.8868 3.57266 24.3634 113.395 27.6982 163.232C28.8063 179.792 25.7947 191.221 23.4367 200.17C20.0866 212.884 18.0559 220.591 31.0335 230.889C44.7541 241.777 68.6044 235.364 91.4704 229.216C111.06 223.949 129.927 218.876 141.083 225.042C164.005 237.712 211.661 230.992 212.782 183.279C212.825 181.464 212.856 179.623 212.875 177.758C212.907 174.581 212.904 171.334 212.861 168.029C211.946 97.3578 192.964 0.463479 116.905 2.01848Z" fill="#F5F5F5"/>
<path d="M230.709 158.301C228.74 159.129 226.618 160.242 224.57 161.437L212.861 168.029C212.904 171.334 212.907 174.581 212.875 177.758L224.57 171.582C227.079 170.12 229.543 168.578 231.704 167.055C236.48 163.692 239.781 160.421 238.838 158.301C237.882 156.149 234.592 156.67 230.709 158.301Z" fill="#F7C5C5"/>
<path d="M224.57 161.437V156.356M224.57 161.437C226.618 160.242 228.74 159.129 230.709 158.301M224.57 161.437L212.861 168.029M230.709 158.301C234.592 156.67 237.882 156.149 238.838 158.301C239.781 160.421 236.48 163.692 231.704 167.055M230.709 158.301V153.761M224.57 171.582L225.219 181.001M224.57 171.582C227.079 170.12 229.543 168.578 231.704 167.055M224.57 171.582L212.875 177.758M231.704 167.055L233.65 171.582M212.861 168.029C211.946 97.3578 192.964 0.463479 116.905 2.01848C40.8868 3.57266 24.3634 113.395 27.6982 163.232C28.8063 179.792 25.7947 191.221 23.4367 200.17C20.0866 212.884 18.0559 220.591 31.0335 230.889C44.7541 241.777 68.6044 235.364 91.4704 229.216C111.06 223.949 129.927 218.876 141.083 225.042C164.005 237.712 211.661 230.992 212.782 183.279C212.825 181.464 212.856 179.623 212.875 177.758M212.861 168.029C212.904 171.334 212.907 174.581 212.875 177.758" stroke="black" stroke-width="3" stroke-linecap="round" stroke-linejoin="round"/>
<path d="M164.95 126.978C167.479 113.527 170.883 99.6825 184.832 99.6829C204.176 99.6835 197.728 130.85 193.305 133.437C192.869 133.692 192.398 133.719 191.998 133.753C188.432 134.055 188.908 129.056 189.045 125.985C188.907 128.76 187.931 135.621 184.013 135.517C179.977 135.411 180.734 130.427 180.784 126.978C180.338 130.724 179.509 138.866 175.733 138.231C172.476 137.683 172.826 132.965 172.649 129.644C172.505 133.09 171.613 139.639 167.099 139.447C162.64 139.257 164.039 131.822 164.947 126.991L164.95 126.978Z" fill="white" stroke="black" stroke-width="3" stroke-linecap="round" stroke-linejoin="round"/>
<path d="M32.418 125.124C37.6774 112.534 44.1901 99.6069 58.0322 100.941C77.8309 102.85 66.7292 134.994 60.3975 135.979C59.9001 136.057 59.4552 136.066 59.0582 136.016C56.3222 135.672 55.8569 132.532 56.1096 129.745C55.4171 132.479 53.8649 135.67 50.9053 136.078C47.2199 136.587 47.3953 131.017 48.0466 127.523C47.2733 130.982 45.2898 136.681 42.2682 137.005C39.3931 137.313 39.2105 132.366 39.5592 128.939C38.9901 132.39 37.2176 137.547 33.3281 137.964C28.9003 138.439 30.5292 129.645 32.418 125.124Z" fill="white" stroke="black" stroke-width="3" stroke-linecap="round" stroke-linejoin="round"/>
<path fill-rule="evenodd" clip-rule="evenodd" d="M97.4508 62.4012C94.9928 63.621 88.3559 65.3286 81.4732 62.4012C80.4866 61.9816 79.5162 61.6261 78.5749 61.3348C80.7516 65.963 73.4998 71 69.5093 70C72.8101 77.0592 80.5666 87.4598 98.6795 90.4558C113.428 92.8954 118.344 90.4558 120.802 89.2361C123.605 84.4722 119 82 112.5 80C105.872 77.9607 106.346 76.4698 107.243 73.6484C107.735 72.1018 108.354 70.1555 108 67.5C107.2 61.5 100.634 61.6008 97.4508 62.4012Z" fill="white"/>
<path d="M78.5749 61.3348C71.3079 59.0858 66.247 60.8072 67.9537 66.0605C68.3028 67.135 68.7909 68.4535 69.4715 69.9189L69.5093 70C73.4998 71 80.7516 65.963 78.5749 61.3348Z" fill="#F7C5C5"/>
<path d="M97.4508 62.4012C94.9928 63.621 88.3559 65.3286 81.4732 62.4012C80.4866 61.9816 79.5162 61.6261 78.5749 61.3348M120.802 89.2361C118.344 90.4558 113.428 92.8954 98.6795 90.4558C76.7234 86.8241 69.9848 72.3122 67.9537 66.0605C66.247 60.8072 71.3079 59.0858 78.5749 61.3348M74.3851 69.2541C76.6886 68.5428 80.7516 65.963 78.5749 61.3348" stroke="black" stroke-width="3" stroke-linecap="round"/>
<path d="M96.0997 48.4111C96.821 48.932 97.922 49.5578 98.8543 49.0911C99.3504 48.8428 99.508 48.3576 99.4755 47.8138C99.4405 47.2275 99.1843 46.5732 98.8927 46.0746C98.5441 45.4784 97.6381 44.8247 96.7387 44.6492C96.5625 44.6149 96.3865 44.5988 96.2151 44.6052C95.8483 44.6189 95.5022 44.7349 95.2181 44.9929C94.4809 45.6622 94.6974 46.6632 95.2131 47.4591C95.4631 47.845 95.7835 48.1827 96.0997 48.4111Z" stroke="black" stroke-width="3"/>
<path d="M123.976 45.3893C123.472 45.8629 123.036 46.4807 123.142 47.1865C123.234 47.8022 123.768 48.0825 124.397 48.1664C124.858 48.2279 125.37 48.184 125.797 48.0893C125.875 48.0721 125.957 48.0474 126.04 48.0159C126.597 47.8058 127.244 47.2944 127.618 46.6812C127.915 46.1943 128.039 45.6433 127.809 45.128C127.429 44.279 126.482 44.1833 125.631 44.4131C125.217 44.5246 124.827 44.7128 124.534 44.9288C124.355 45.061 124.161 45.2154 123.976 45.3893Z" stroke="black" stroke-width="3"/>
<path d="M128.969 65.5156L149.598 63.5818M134.423 71.4378L145.724 72.5108" stroke="black" stroke-width="3" stroke-linecap="round"/>
<path d="M22.2225 221.211C14.8722 222.508 0.560833 226.01 2.11736 229.642C3.67389 233.274 14.0075 231.155 18.9797 229.642C15.0884 231.588 8.47314 235.868 13.1427 237.425C17.8123 238.981 22.871 236.344 24.8167 234.831C22.871 236.776 20.1471 240.797 24.8167 241.316C29.4863 241.835 36.2744 237.209 39.0848 234.831M154.527 229.642C149.987 230.939 147.653 234.96 151.284 238.073C154.916 241.186 159.716 236.992 162.31 234.831C161.013 237.425 158.597 240.757 162.31 242.613C166.201 244.559 169.66 238.722 170.741 237.425C167.498 240.668 170.741 246.504 175.929 243.91C181.118 241.316 194.737 232.885 189.549 225.751" stroke="black" stroke-width="3" stroke-linecap="round" stroke-linejoin="round"/>
</svg>
