<svg width="28" height="28" viewBox="0 0 28 28" fill="none" xmlns="http://www.w3.org/2000/svg">
<rect x="0.5" y="0.5" width="27" height="27" rx="13.5" fill="#F5F5F5"/>
<rect x="0.5" y="0.5" width="27" height="27" rx="13.5" stroke="black"/>
<path d="M19.039 11.5693C20.5093 11.6996 21.2527 10.4679 21.4552 9.72757C21.609 9.75814 21.7565 9.80341 21.8932 9.8652C20.8718 10.9879 21.388 12.0849 21.7739 12.4931C21.4458 12.7211 21.0766 12.887 20.7464 12.9662C20.6165 12.5418 20.0938 11.6726 19.039 11.5693Z" fill="black"/>
<path d="M20.7464 12.9662C19.993 13.1471 18.8985 13.2869 18.2963 12.6032C17.9759 12.2395 18.0064 11.7968 18.2099 11.37C18.5004 11.4804 18.7695 11.5433 19.018 11.5674L19.039 11.5693C20.0938 11.6726 20.6165 12.5418 20.7464 12.9662Z" fill="black"/>
<path d="M19.2482 10.1629C19.7245 9.79823 20.6705 9.57155 21.4552 9.72757C21.2527 10.4679 20.5093 11.6996 19.039 11.5693L19.018 11.5674C18.7695 11.5433 18.5004 11.4804 18.2099 11.37C18.4293 10.9097 18.8498 10.4678 19.2482 10.1629Z" fill="black"/>
<path d="M22.5734 10.5067C22.9517 11.2889 22.4504 12.023 21.7739 12.4931C21.388 12.0849 20.8718 10.9879 21.8932 9.8652C22.1854 9.99738 22.4276 10.2052 22.5734 10.5067Z" fill="black"/>
<path d="M20.7464 12.9662C19.993 13.1471 18.8985 13.2869 18.2963 12.6032C17.9759 12.2395 18.0064 11.7968 18.2099 11.37M20.7464 12.9662C21.0766 12.887 21.4458 12.7211 21.7739 12.4931M20.7464 12.9662C20.6165 12.5418 20.0938 11.6726 19.039 11.5693M21.4552 9.72757C20.6705 9.57155 19.7245 9.79823 19.2482 10.1629C18.8498 10.4678 18.4293 10.9097 18.2099 11.37M21.4552 9.72757C21.609 9.75814 21.7565 9.80341 21.8932 9.8652M21.4552 9.72757C21.2527 10.4679 20.5093 11.6996 19.039 11.5693M18.2099 11.37C18.5004 11.4804 18.7695 11.5433 19.018 11.5674M19.018 11.5674C19.025 11.568 19.032 11.5686 19.039 11.5693M19.018 11.5674L19.039 11.5693M21.7739 12.4931C22.4504 12.023 22.9517 11.2889 22.5734 10.5067C22.4276 10.2052 22.1854 9.99738 21.8932 9.8652M21.7739 12.4931C21.388 12.0849 20.8718 10.9879 21.8932 9.8652" stroke="black" stroke-width="1.04708"/>
<path d="M8.19071 10.1151C8.37319 10.2149 8.5719 10.3335 8.76472 10.4712C8.01763 10.8902 6.96342 12.0014 8.72332 13.094C8.3046 13.2087 7.82529 13.2323 7.41791 13.1983C7.34352 13.1921 7.26518 13.1795 7.1841 13.1608C8.37298 11.1971 5.67041 10.3498 5.55656 12.1237C5.22072 11.7104 5.03645 11.216 5.18516 10.7103C6.66618 11.6619 7.08605 10.4836 7.11086 9.77545C7.50731 9.82681 7.89265 9.95195 8.19071 10.1151Z" fill="black"/>
<path d="M5.55656 12.1237C5.97948 12.6442 6.64277 13.0362 7.1841 13.1608C8.37298 11.1971 5.67041 10.3498 5.55656 12.1237Z" fill="black"/>
<path d="M7.11086 9.77545C6.29411 9.66963 5.4302 9.87694 5.18516 10.7103C6.66618 11.6619 7.08605 10.4836 7.11086 9.77545Z" fill="black"/>
<path d="M8.76472 10.4712C9.29007 10.8463 9.77168 11.3632 9.76215 12.0296C9.75383 12.6111 9.29507 12.9374 8.72332 13.094C6.96342 12.0014 8.01763 10.8902 8.76472 10.4712Z" fill="black"/>
<path d="M5.18516 10.7103C5.4302 9.87694 6.29411 9.66963 7.11086 9.77545M5.18516 10.7103C6.66618 11.6619 7.08605 10.4836 7.11086 9.77545M5.18516 10.7103C5.03645 11.216 5.22072 11.7104 5.55656 12.1237M8.76472 10.4712C9.29007 10.8463 9.77168 11.3632 9.76215 12.0296C9.75383 12.6111 9.29507 12.9374 8.72332 13.094M8.76472 10.4712C8.5719 10.3335 8.37319 10.2149 8.19071 10.1151C7.89265 9.95195 7.50731 9.82681 7.11086 9.77545M8.76472 10.4712C8.01763 10.8902 6.96342 12.0014 8.72332 13.094M8.72332 13.094C8.3046 13.2087 7.82529 13.2323 7.41791 13.1983C7.34352 13.1921 7.26518 13.1795 7.1841 13.1608M7.1841 13.1608C6.64277 13.0362 5.97948 12.6442 5.55656 12.1237M7.1841 13.1608C8.37298 11.1971 5.67041 10.3498 5.55656 12.1237" stroke="black" stroke-width="1.04708"/>
<path d="M6.78711 16.8438L2.98951 15.6027M5.40476 17.8921L3.19899 17.6685" stroke="black" stroke-width="1.04708" stroke-linecap="round"/>
<path d="M21.2944 16.9736L24.8908 15.2335M22.8051 17.8267L24.9608 17.3087" stroke="black" stroke-width="1.04708" stroke-linecap="round"/>
<path d="M11.8782 17.0429C11.2846 18.4012 12.7788 19.805 13.943 19.805C15.1073 19.805 16.4526 18.7284 16.3314 17.4563C16.2103 16.1843 12.4093 15.8276 11.8782 17.0429Z" fill="white" stroke="black" stroke-width="1.27042"/>
</svg>
