<svg width="25" height="30" viewBox="0 0 25 30" fill="none" xmlns="http://www.w3.org/2000/svg">
<path d="M22.9232 11.5348C22.8286 11.2322 22.6392 10.9681 22.3829 10.7816C22.1266 10.595 21.8171 10.4959 21.5001 10.4988H15.7813L13.9279 4.80447C13.8345 4.49909 13.6456 4.23172 13.389 4.04159C13.1324 3.85145 12.8216 3.74857 12.5023 3.74805C12.1829 3.74752 11.8718 3.84938 11.6146 4.03867C11.3574 4.22796 11.1677 4.49471 11.0732 4.79978L9.22447 10.4988H3.5001C3.18222 10.498 2.8723 10.5981 2.61504 10.7849C2.35778 10.9716 2.16648 11.2352 2.06875 11.5377C1.97102 11.8401 1.9719 12.1658 2.07128 12.4678C2.17066 12.7697 2.36339 13.0323 2.62166 13.2176L7.25853 16.5532L5.48291 22.0301C5.3818 22.3313 5.38056 22.6571 5.47936 22.9591C5.57817 23.2611 5.77175 23.5231 6.03135 23.7063C6.28577 23.8953 6.59427 23.9973 6.91119 23.9973C7.22811 23.9973 7.53661 23.8953 7.79103 23.7063L12.5001 20.3192L17.2092 23.7063C17.4654 23.8923 17.7739 23.9925 18.0905 23.9924C18.4071 23.9924 18.7156 23.8922 18.9718 23.7061C19.2279 23.5201 19.4187 23.2578 19.5167 22.9567C19.6147 22.6556 19.6149 22.3313 19.5173 22.0301L17.736 16.5495L22.3757 13.211C22.6353 13.0278 22.8288 12.7657 22.9274 12.4637C23.026 12.1617 23.0246 11.8359 22.9232 11.5348ZM12.5001 5.2629L14.1988 10.4988H10.8013L12.5001 5.2629ZM3.5001 11.9988H8.73791L7.74697 15.0513L3.5001 11.9988ZM6.90697 22.4988L8.53728 17.4748L11.2129 19.4004L6.90697 22.4988ZM9.02291 15.9767L10.3148 11.9988H14.6854L15.9745 15.972L12.5001 18.4676L9.02291 15.9767ZM18.0876 22.4988L13.7845 19.4051L16.4601 17.4795L18.0876 22.4988ZM17.2504 15.057L16.2623 11.9988H21.5001L17.2504 15.057Z" fill="black"/>
</svg>
