<svg width="24" height="24" viewBox="0 0 24 24" fill="none" xmlns="http://www.w3.org/2000/svg">
<g clip-path="url(#clip0_192_4398)">
<path d="M2.40625 21.6546H21.5933V11.1889C21.5934 11.0744 21.5709 10.9609 21.5272 10.8551C21.4834 10.7492 21.4192 10.653 21.3382 10.5719L12.6168 1.85051C12.5358 1.76942 12.4396 1.7051 12.3338 1.66121C12.2279 1.61732 12.1144 1.59473 11.9998 1.59473C11.8852 1.59473 11.7717 1.61732 11.6658 1.66121C11.5599 1.7051 11.4637 1.76942 11.3827 1.85051L2.66135 10.5719C2.58039 10.653 2.51618 10.7492 2.47241 10.8551C2.42864 10.9609 2.40616 11.0744 2.40625 11.1889V21.6546Z" fill="black" stroke="black" stroke-width="1.6" stroke-linecap="round" stroke-linejoin="round"/>
</g>
<defs>
<clipPath id="clip0_192_4398">
<rect width="24" height="24" fill="white"/>
</clipPath>
</defs>
</svg>
