<svg width="24" height="24" viewBox="0 0 24 24" fill="none" xmlns="http://www.w3.org/2000/svg">
<rect x="0.8" y="0.8" width="22.4" height="22.4" rx="11.2" fill="#F5F5F5"/>
<rect x="0.8" y="0.8" width="22.4" height="22.4" rx="11.2" stroke="#595959" stroke-width="1.6"/>
<path d="M15.3163 9.87509C15.8325 9.92081 16.0934 9.48845 16.1645 9.22855C16.2185 9.23928 16.2703 9.25517 16.3183 9.27686C15.9597 9.67098 16.141 10.0561 16.2764 10.1994C16.1612 10.2794 16.0316 10.3376 15.9157 10.3655C15.8701 10.2165 15.6866 9.91134 15.3163 9.87509Z" fill="#595959"/>
<path d="M15.9157 10.3655C15.6513 10.429 15.267 10.478 15.0556 10.238C14.9431 10.1103 14.9539 9.95495 15.0253 9.80511C15.1273 9.84388 15.2217 9.86595 15.309 9.8744L15.3163 9.87509C15.6866 9.91134 15.8701 10.2165 15.9157 10.3655Z" fill="#595959"/>
<path d="M15.3898 9.38135C15.557 9.25335 15.8891 9.17377 16.1645 9.22855C16.0934 9.48845 15.8325 9.92081 15.3163 9.87509L15.309 9.8744C15.2217 9.86595 15.1273 9.84388 15.0253 9.80511C15.1023 9.64354 15.2499 9.4884 15.3898 9.38135Z" fill="#595959"/>
<path d="M16.5571 9.50205C16.6899 9.77665 16.5139 10.0343 16.2764 10.1994C16.141 10.0561 15.9597 9.67098 16.3183 9.27686C16.4209 9.32326 16.5059 9.39622 16.5571 9.50205Z" fill="#595959"/>
<path d="M15.9157 10.3655C15.6513 10.429 15.267 10.478 15.0556 10.238C14.9431 10.1103 14.9539 9.95495 15.0253 9.80511M15.9157 10.3655C16.0316 10.3376 16.1612 10.2794 16.2764 10.1994M15.9157 10.3655C15.8701 10.2165 15.6866 9.91134 15.3163 9.87509M16.1645 9.22855C15.8891 9.17377 15.557 9.25335 15.3898 9.38135C15.2499 9.4884 15.1023 9.64354 15.0253 9.80511M16.1645 9.22855C16.2185 9.23928 16.2703 9.25517 16.3183 9.27686M16.1645 9.22855C16.0934 9.48845 15.8325 9.92081 15.3163 9.87509M15.0253 9.80511C15.1273 9.84388 15.2217 9.86595 15.309 9.8744M15.309 9.8744C15.3114 9.87462 15.3139 9.87485 15.3163 9.87509M15.309 9.8744L15.3163 9.87509M16.2764 10.1994C16.5139 10.0343 16.6899 9.77665 16.5571 9.50205C16.5059 9.39622 16.4209 9.32326 16.3183 9.27686M16.2764 10.1994C16.141 10.0561 15.9597 9.67098 16.3183 9.27686" stroke="#595959" stroke-width="0.897501"/>
<path d="M8.13504 9.57966C8.20623 9.61862 8.28375 9.66489 8.35898 9.71861C8.06751 9.88208 7.65622 10.3156 8.34283 10.7419C8.17947 10.7866 7.99247 10.7958 7.83354 10.7826C7.80451 10.7802 7.77395 10.7752 7.74232 10.7679C8.20614 10.0018 7.15176 9.67123 7.10734 10.3633C6.97632 10.2021 6.90443 10.0092 6.96245 9.81187C7.54025 10.1831 7.70406 9.72343 7.71374 9.44716C7.86841 9.4672 8.01875 9.51602 8.13504 9.57966Z" fill="#595959"/>
<path d="M7.10734 10.3633C7.27234 10.5664 7.53112 10.7193 7.74232 10.7679C8.20614 10.0018 7.15176 9.67123 7.10734 10.3633Z" fill="#595959"/>
<path d="M7.71374 9.44716C7.39509 9.40588 7.05805 9.48676 6.96245 9.81187C7.54025 10.1831 7.70406 9.72343 7.71374 9.44716Z" fill="#595959"/>
<path d="M8.35898 9.71861C8.56394 9.86496 8.75184 10.0666 8.74812 10.3266C8.74487 10.5535 8.56589 10.6808 8.34283 10.7419C7.65622 10.3156 8.06751 9.88208 8.35898 9.71861Z" fill="#595959"/>
<path d="M6.96245 9.81187C7.05805 9.48676 7.39509 9.40588 7.71374 9.44716M6.96245 9.81187C7.54025 10.1831 7.70406 9.72343 7.71374 9.44716M6.96245 9.81187C6.90443 10.0092 6.97632 10.2021 7.10734 10.3633M8.35898 9.71861C8.56394 9.86496 8.75184 10.0666 8.74812 10.3266C8.74487 10.5535 8.56589 10.6808 8.34283 10.7419M8.35898 9.71861C8.28375 9.66489 8.20623 9.61862 8.13504 9.57966C8.01875 9.51602 7.86841 9.4672 7.71374 9.44716M8.35898 9.71861C8.06751 9.88208 7.65622 10.3156 8.34283 10.7419M8.34283 10.7419C8.17947 10.7866 7.99247 10.7958 7.83354 10.7826C7.80451 10.7802 7.77395 10.7752 7.74232 10.7679M7.74232 10.7679C7.53112 10.7193 7.27234 10.5664 7.10734 10.3633M7.74232 10.7679C8.20614 10.0018 7.15176 9.67123 7.10734 10.3633" stroke="#595959" stroke-width="0.897501"/>
<path d="M10.1798 14.607C9.67098 15.7713 10.9517 16.9746 11.9496 16.9746C12.9476 16.9746 14.1007 16.0518 13.9968 14.9615C13.893 13.8711 10.635 13.5654 10.1798 14.607Z" fill="white" stroke="#595959" stroke-width="1.08893"/>
</svg>
