<svg width="26" height="25" viewBox="0 0 26 25" fill="none" xmlns="http://www.w3.org/2000/svg">
<circle cx="11.7318" cy="13.11" r="10.4036" fill="black"/>
<path d="M20.1662 7.44955L20.7075 7.08979V7.08979L20.1662 7.44955ZM5.83956 21.6381L5.47457 22.1759V22.1759L5.83956 21.6381ZM2.74102 18.335L2.18088 18.6647L2.74102 18.335ZM1.44692 11.5535L0.804487 11.4546L1.44692 11.5535ZM9.02157 10.516L9.46779 10.9886V10.9886L9.02157 10.516ZM12.6691 23.3385L12.7426 23.9843L12.6691 23.3385ZM25.3281 24.0518C25.6871 24.0518 25.9781 23.7608 25.9781 23.4018C25.9781 23.0428 25.6871 22.7518 25.3281 22.7518V23.4018V24.0518ZM17.352 4.61231L16.9878 5.15071C18.0306 5.85605 18.9278 6.76052 19.6248 7.80932L20.1662 7.44955L20.7075 7.08979C19.9168 5.8999 18.8991 4.87409 17.7162 4.07391L17.352 4.61231ZM20.1662 7.44955L19.6248 7.80932C20.3318 8.87308 20.8325 10.085 21.0705 11.3884L21.7099 11.2716L22.3493 11.1548C22.0789 9.67379 21.5099 8.29714 20.7075 7.08979L20.1662 7.44955ZM9.62781 23.2153L9.75198 22.5773C8.45844 22.3256 7.25728 21.8146 6.20454 21.1002L5.83956 21.6381L5.47457 22.1759C6.66933 22.9867 8.03374 23.5673 9.50364 23.8534L9.62781 23.2153ZM5.83956 21.6381L6.20454 21.1002C5.02231 20.298 4.02787 19.2396 3.30116 18.0052L2.74102 18.335L2.18088 18.6647C3.00557 20.0655 4.13351 21.2659 5.47457 22.1759L5.83956 21.6381ZM1.44692 11.5535L2.08935 11.6524C2.26108 10.5368 2.62436 9.48452 3.14473 8.52988L2.57401 8.21879L2.00329 7.90769C1.41234 8.99183 0.999545 10.1874 0.804487 11.4546L1.44692 11.5535ZM2.57401 8.21879L3.14473 8.52988C3.88378 7.17403 4.93974 6.0151 6.21303 5.15304L5.84862 4.61479L5.48421 4.07655C4.03992 5.05439 2.84213 6.36878 2.00329 7.90769L2.57401 8.21879ZM2.57401 8.21879L2.41905 8.85005C4.62617 9.39185 6.74129 10.1513 8.74241 11.103L9.02157 10.516L9.30073 9.92898C7.22091 8.93987 5.02263 8.15058 2.72897 7.58753L2.57401 8.21879ZM5.84862 4.61479L5.65852 5.23637C8.00789 5.95492 10.2488 6.90685 12.3564 8.06361L12.6691 7.4938L12.9819 6.92398C10.7972 5.72491 8.4742 4.73809 6.03873 3.99321L5.84862 4.61479ZM9.02157 10.516L9.46779 10.9886C10.5954 9.92409 11.7921 8.93211 13.0506 8.02012L12.6691 7.4938L12.2877 6.96747C10.9837 7.91249 9.74365 8.94036 8.57535 10.0433L9.02157 10.516ZM12.6691 7.4938L13.0506 8.02012C14.5051 6.96604 16.042 6.01886 17.6498 5.19006L17.352 4.61231L17.0541 4.03456C15.3877 4.89358 13.7949 5.8752 12.2877 6.96747L12.6691 7.4938ZM1.44692 11.5535L1.25135 12.1734C2.87151 12.6845 4.43533 13.3151 5.93332 14.0541L6.22091 13.4712L6.50849 12.8883C4.95164 12.1202 3.32634 11.4648 1.64249 10.9336L1.44692 11.5535ZM2.74102 18.335L3.29888 18.6686C4.30799 16.9812 5.45228 15.3838 6.71682 13.8914L6.22091 13.4712L5.72499 13.051C4.41475 14.5973 3.22897 16.2526 2.18317 18.0013L2.74102 18.335ZM6.22091 13.4712L6.71682 13.8914C7.57945 12.8733 8.49802 11.9042 9.46779 10.9886L9.02157 10.516L8.57535 10.0433C7.57056 10.9919 6.61881 11.9961 5.72499 13.051L6.22091 13.4712ZM5.84862 4.61479L6.21303 5.15304C9.42566 2.97797 13.7742 2.97703 16.9878 5.15071L17.352 4.61231L17.7162 4.07391C14.0625 1.60252 9.13686 1.60358 5.48421 4.07655L5.84862 4.61479ZM2.74102 18.335L3.30116 18.0052C2.18273 16.1054 1.75389 13.8318 2.08935 11.6524L1.44692 11.5535L0.804487 11.4546C0.423917 13.927 0.908789 16.5039 2.18088 18.6647L2.74102 18.335ZM9.62781 23.2153L10.1855 23.5492C13.0727 18.727 17.1827 14.6639 22.0373 11.8331L21.7099 11.2716L21.3825 10.7101C16.3383 13.6514 12.0699 17.8711 9.07013 22.8814L9.62781 23.2153ZM5.83956 21.6381L6.41309 21.944C9.56968 16.0249 14.5182 11.1242 20.4665 8.02604L20.1662 7.44955L19.8659 6.87306C13.685 10.0924 8.54599 15.1818 5.26602 21.3322L5.83956 21.6381ZM21.7099 11.2716L21.0705 11.3884C22.0823 16.9288 17.9237 22.0866 12.5957 22.6926L12.6691 23.3385L12.7426 23.9843C18.7763 23.298 23.5038 17.4763 22.3493 11.1548L21.7099 11.2716ZM12.6691 23.3385L12.5957 22.6926C11.6767 22.7972 10.7221 22.7661 9.75198 22.5773L9.62781 23.2153L9.50364 23.8534C10.6056 24.0678 11.6935 24.1036 12.7426 23.9843L12.6691 23.3385ZM11.1803 23.4018V24.0518H25.3281V23.4018V22.7518H11.1803V23.4018Z" fill="black"/>
<path d="M19.3523 3.6123C17.7152 4.45621 15.1504 6.42062 13.6695 7.49379M22.1665 6.44955C16.1019 9.60825 9.05818 16.6033 5.8399 22.6381M23.7103 10.2716C18.7609 13.1576 12.5716 19.2991 9.62816 24.2153M2.74137 19.3349C3.76882 17.6169 5.93386 14.9905 7.22125 13.4712M1.44727 10.5535C3.09927 11.0747 5.69383 12.7176 7.22125 13.4712M2.57435 7.21878C4.82475 7.77121 7.98145 9.54558 10.0219 10.516M5.84897 3.61479C8.24139 4.3465 11.5233 6.31587 13.6695 7.49379M10.0219 10.516C11.1699 9.43222 12.3882 8.4223 13.6695 7.49379M10.0219 10.516C9.03464 11.448 8.09948 12.4347 7.22125 13.4712" stroke="white" stroke-width="1.3" stroke-linecap="round"/>
</svg>
