<svg width="32" height="32" viewBox="0 0 32 32" fill="none" xmlns="http://www.w3.org/2000/svg">
<path d="M13.9033 5.64355C13.7468 6.06245 13.6217 6.49655 13.5312 6.94336H8.36328C6.88159 6.94354 5.68086 8.14527 5.68066 9.62695V19.0449H12.1328V19.7168C12.1335 19.7375 12.1355 19.7713 12.1387 19.8154C12.145 19.904 12.1582 20.0348 12.1846 20.1934C12.238 20.5137 12.3432 20.9315 12.5479 21.3408C12.7512 21.7475 13.0466 22.1342 13.4766 22.4209C13.9026 22.7049 14.4997 22.9169 15.3535 22.917C16.2076 22.917 16.8053 22.705 17.2314 22.4209C17.6614 22.1342 17.9568 21.7475 18.1602 21.3408C18.3648 20.9315 18.47 20.5137 18.5234 20.1934C18.5499 20.0348 18.563 19.904 18.5693 19.8154C18.5725 19.7713 18.5735 19.7375 18.5742 19.7168C18.5745 19.707 18.5751 19.7 18.5752 19.6963V19.0449H26.3174V17.3076H27.6182V25.0059C27.6182 27.2057 25.8346 28.9891 23.6348 28.9893H8.36328C6.1635 28.9891 4.37988 27.2057 4.37988 25.0059V9.62695C4.38008 7.4273 6.16362 5.64373 8.36328 5.64355H13.9033ZM5.68066 25.0059C5.68066 26.4877 6.88147 27.6893 8.36328 27.6895H23.6348C25.1166 27.6893 26.3174 26.4877 26.3174 25.0059V20.3457H19.8145C19.8113 20.3657 19.8091 20.3865 19.8057 20.4072C19.7381 20.8127 19.6014 21.3635 19.3223 21.9219C19.0418 22.4828 18.6106 23.0639 17.9521 23.5029C17.2895 23.9446 16.4349 24.2168 15.3535 24.2168C14.2721 24.2167 13.4175 23.9447 12.7549 23.5029C12.0963 23.0639 11.6653 22.4829 11.3848 21.9219C11.1056 21.3635 10.9689 20.8127 10.9014 20.4072C10.8979 20.3865 10.8957 20.3657 10.8926 20.3457H5.68066V25.0059Z" fill="currentColor"/>
<path d="M25.6152 3.18594L25.2511 3.72434V3.72434L25.6152 3.18594ZM27.4247 5.01019L27.966 4.65042L27.4247 5.01019ZM28.4172 7.46762L29.0567 7.35084L28.4172 7.46762ZM18.2132 14.1329L17.8482 14.6707V14.6707L18.2132 14.1329ZM16.2209 12.0091L15.6608 12.3389H15.6608L16.2209 12.0091ZM15.3889 7.64887L16.0313 7.74776L15.3889 7.64887ZM16.1136 5.50478L16.6843 5.81587V5.81587L16.1136 5.50478ZM18.219 3.18754L17.8546 2.6493L18.219 3.18754ZM22.6044 15.2262L22.6778 15.872L22.6044 15.2262ZM30.7436 15.9169C31.1026 15.9169 31.3936 15.6259 31.3936 15.2669C31.3936 14.9079 31.1026 14.6169 30.7436 14.6169V15.2669V15.9169ZM18.0165 13.9941L17.6322 14.5184V14.5184L18.0165 13.9941ZM18.0165 3.33027L18.4008 3.85451V3.85451L18.0165 3.33027ZM24.285 6.07393L24.6571 6.60685V6.60685L24.285 6.07393ZM27.4247 5.01019L26.8833 5.36995C27.3208 6.02828 27.6306 6.77805 27.7778 7.58439L28.4172 7.46762L29.0567 7.35084C28.877 6.36689 28.499 5.45234 27.966 4.65042L27.4247 5.01019ZM20.6489 15.147L20.7731 14.509C19.9728 14.3532 19.2297 14.0372 18.5782 13.595L18.2132 14.1329L17.8482 14.6707C18.6417 15.2092 19.5481 15.595 20.5247 15.785L20.6489 15.147ZM18.219 3.18754L18.5834 3.72578C20.5705 2.38048 23.2634 2.3799 25.2511 3.72434L25.6152 3.18594L25.9794 2.64754C23.5517 1.00538 20.2817 1.00609 17.8546 2.6493L18.219 3.18754ZM16.2209 12.0091L16.7811 11.6793C16.0894 10.5044 15.8237 9.09671 16.0313 7.74776L15.3889 7.64887L14.7464 7.54998C14.4937 9.19196 14.8155 10.903 15.6608 12.3389L16.2209 12.0091ZM20.6489 15.147L21.2066 15.4809C23.0428 12.414 25.6571 9.82951 28.7447 8.02913L28.4172 7.46762L28.0898 6.90611C24.8128 8.81698 22.0401 11.5581 20.0912 14.8131L20.6489 15.147ZM28.4172 7.46762L27.7778 7.58439C28.4029 11.0073 25.8306 14.205 22.5309 14.5803L22.6044 15.2262L22.6778 15.872C26.6832 15.4164 29.8244 11.5547 29.0567 7.35084L28.4172 7.46762ZM22.6044 15.2262L22.5309 14.5803C21.9632 14.6449 21.3733 14.6258 20.7731 14.509L20.6489 15.147L20.5247 15.785C21.2568 15.9275 21.9801 15.9514 22.6778 15.872L22.6044 15.2262ZM21.6471 15.2669V15.9169H30.7436V15.2669V14.6169H21.6471V15.2669ZM18.2132 14.1329L18.5782 13.595C18.5182 13.5544 18.4591 13.5126 18.4008 13.4699L18.0165 13.9941L17.6322 14.5184C17.7032 14.5704 17.7752 14.6212 17.8482 14.6707L18.2132 14.1329ZM18.0165 13.9941L18.4008 13.4699C17.7466 12.9904 17.194 12.3807 16.7811 11.6793L16.2209 12.0091L15.6608 12.3389C16.1637 13.1931 16.8363 13.9349 17.6322 14.5184L18.0165 13.9941ZM25.6152 3.18594L25.2511 3.72434C25.7299 4.04823 26.1593 4.44003 26.5252 4.8859L27.0277 4.47352L27.5301 4.06113C27.0848 3.51864 26.5624 3.04187 25.9794 2.64754L25.6152 3.18594ZM27.0277 4.47352L26.5252 4.8859C26.6525 5.04094 26.772 5.20248 26.8833 5.36995L27.4247 5.01019L27.966 4.65042C27.8305 4.44648 27.685 4.24981 27.5301 4.06113L27.0277 4.47352ZM18.0165 3.33027L18.4008 3.85451C18.4608 3.81049 18.5217 3.76757 18.5834 3.72578L18.219 3.18754L17.8546 2.6493C17.7794 2.70018 17.7053 2.75244 17.6322 2.80603L18.0165 3.33027ZM24.285 6.07393L24.6571 6.60685C25.4507 6.0527 26.3326 5.52923 27.3095 5.05925L27.0277 4.47352L26.7458 3.88778C25.7044 4.38884 24.7622 4.9479 23.9128 5.541L24.285 6.07393ZM18.0165 13.9941L18.6423 14.1698C18.955 13.0561 20.0072 10.8958 22.1106 8.7562L21.6471 8.30051L21.1836 7.84482C18.9429 10.1239 17.7687 12.4721 17.3907 13.8184L18.0165 13.9941ZM21.6471 8.30051L22.1106 8.7562C22.8333 8.02109 23.6782 7.29043 24.6571 6.60685L24.285 6.07393L23.9128 5.541C22.8652 6.27259 21.9595 7.05558 21.1836 7.84482L21.6471 8.30051ZM15.3889 7.64887L16.0313 7.74776C16.0628 7.5431 16.1047 7.34194 16.1565 7.14483L15.5278 6.97976L14.8991 6.81469C14.836 7.0552 14.7848 7.30053 14.7464 7.54998L15.3889 7.64887ZM15.5278 6.97976L16.1565 7.14483C16.2793 6.67698 16.4577 6.23153 16.6843 5.81587L16.1136 5.50478L15.5428 5.19368C15.2667 5.70034 15.049 6.24374 14.8991 6.81469L15.5278 6.97976ZM21.6471 8.30051L21.8977 7.70077C21.2561 7.43263 20.1823 7.04787 19.016 6.7514C17.8632 6.45836 16.554 6.23407 15.4691 6.33242L15.5278 6.97976L15.5865 7.62711C16.4467 7.54913 17.5825 7.72835 18.6958 8.01133C19.7955 8.29089 20.8088 8.65467 21.3965 8.90024L21.6471 8.30051ZM16.1136 5.50478L16.6843 5.81587C17.0294 5.18278 17.4862 4.61884 18.0285 4.15082L17.6038 3.65875L17.1791 3.16668C16.5195 3.73599 15.9633 4.42226 15.5428 5.19368L16.1136 5.50478ZM17.6038 3.65875L18.0285 4.15082C18.1485 4.04723 18.2727 3.94837 18.4008 3.85451L18.0165 3.33027L17.6322 2.80603C17.4763 2.9203 17.3252 3.04063 17.1791 3.16668L17.6038 3.65875ZM24.285 6.07393L24.7135 5.58521C23.7744 4.76171 21.1214 3.17532 17.6347 3.00948L17.6038 3.65875L17.5729 4.30801C20.7296 4.45816 23.1095 5.90768 23.8564 6.56264L24.285 6.07393Z" fill="currentColor"/>
</svg>
